<mxfile host="app.diagrams.net" agent="Mozilla/5.0 (Windows NT 10.0; Win64; x64) AppleWebKit/537.36 (KHTML, like Gecko) Chrome/134.0.0.0 Safari/537.36" version="26.1.3">
  <diagram name="Страница — 1" id="jQVE1IbMVGLy6WtJzIly">
    <mxGraphModel dx="3044" dy="1418" grid="1" gridSize="10" guides="1" tooltips="1" connect="1" arrows="1" fold="1" page="1" pageScale="1" pageWidth="827" pageHeight="1169" math="0" shadow="0">
      <root>
        <mxCell id="0" />
        <mxCell id="1" parent="0" />
        <mxCell id="9wxw3BKqKDEFKJXXTm7Z-25" value="&lt;strong style=&quot;color: rgb(64, 64, 64); font-family: DeepSeek-CJK-patch, Inter, system-ui, -apple-system, BlinkMacSystemFont, &amp;quot;Segoe UI&amp;quot;, Roboto, &amp;quot;Noto Sans&amp;quot;, Ubuntu, Cantarell, &amp;quot;Helvetica Neue&amp;quot;, Oxygen, &amp;quot;Open Sans&amp;quot;, sans-serif; font-size: 16.002px;&quot;&gt;Система управления владельцами телефонов&lt;/strong&gt;" style="whiteSpace=wrap;html=1;aspect=fixed;align=center;" vertex="1" parent="1">
          <mxGeometry x="70" y="40" width="890" height="890" as="geometry" />
        </mxCell>
        <mxCell id="9wxw3BKqKDEFKJXXTm7Z-19" style="edgeStyle=orthogonalEdgeStyle;rounded=0;orthogonalLoop=1;jettySize=auto;html=1;exitX=0.5;exitY=0.5;exitDx=0;exitDy=0;exitPerimeter=0;" edge="1" parent="1" source="9wxw3BKqKDEFKJXXTm7Z-4" target="9wxw3BKqKDEFKJXXTm7Z-8">
          <mxGeometry relative="1" as="geometry" />
        </mxCell>
        <mxCell id="9wxw3BKqKDEFKJXXTm7Z-20" style="edgeStyle=orthogonalEdgeStyle;rounded=0;orthogonalLoop=1;jettySize=auto;html=1;exitX=0.5;exitY=0.5;exitDx=0;exitDy=0;exitPerimeter=0;" edge="1" parent="1" source="9wxw3BKqKDEFKJXXTm7Z-4" target="9wxw3BKqKDEFKJXXTm7Z-12">
          <mxGeometry relative="1" as="geometry" />
        </mxCell>
        <mxCell id="9wxw3BKqKDEFKJXXTm7Z-21" style="edgeStyle=orthogonalEdgeStyle;rounded=0;orthogonalLoop=1;jettySize=auto;html=1;exitX=0.5;exitY=0.5;exitDx=0;exitDy=0;exitPerimeter=0;" edge="1" parent="1" source="9wxw3BKqKDEFKJXXTm7Z-4" target="9wxw3BKqKDEFKJXXTm7Z-9">
          <mxGeometry relative="1" as="geometry" />
        </mxCell>
        <mxCell id="9wxw3BKqKDEFKJXXTm7Z-4" value="&lt;div&gt;&lt;span style=&quot;background-color: transparent; color: light-dark(rgb(0, 0, 0), rgb(255, 255, 255));&quot;&gt;Администратор&lt;/span&gt;&lt;/div&gt;" style="shape=umlActor;verticalLabelPosition=bottom;verticalAlign=top;html=1;outlineConnect=0;fillColor=#FF0000;strokeColor=#FF0000;" vertex="1" parent="1">
          <mxGeometry x="180" y="260" width="30" height="60" as="geometry" />
        </mxCell>
        <mxCell id="9wxw3BKqKDEFKJXXTm7Z-17" style="edgeStyle=orthogonalEdgeStyle;rounded=0;orthogonalLoop=1;jettySize=auto;html=1;exitX=0.5;exitY=0.5;exitDx=0;exitDy=0;exitPerimeter=0;" edge="1" parent="1" source="9wxw3BKqKDEFKJXXTm7Z-5" target="9wxw3BKqKDEFKJXXTm7Z-11">
          <mxGeometry relative="1" as="geometry" />
        </mxCell>
        <mxCell id="9wxw3BKqKDEFKJXXTm7Z-5" value="Пользователь" style="shape=umlActor;verticalLabelPosition=bottom;verticalAlign=top;html=1;outlineConnect=0;fillColor=#3333FF;strokeColor=#3333FF;" vertex="1" parent="1">
          <mxGeometry x="399" y="110" width="30" height="60" as="geometry" />
        </mxCell>
        <mxCell id="9wxw3BKqKDEFKJXXTm7Z-6" value="Вход в систему" style="ellipse;whiteSpace=wrap;html=1;" vertex="1" parent="1">
          <mxGeometry x="230" y="560" width="140" height="70" as="geometry" />
        </mxCell>
        <mxCell id="9wxw3BKqKDEFKJXXTm7Z-8" value="Добавить владельца" style="ellipse;whiteSpace=wrap;html=1;" vertex="1" parent="1">
          <mxGeometry x="80" y="630" width="140" height="70" as="geometry" />
        </mxCell>
        <mxCell id="9wxw3BKqKDEFKJXXTm7Z-9" value="Удалить владельца" style="ellipse;whiteSpace=wrap;html=1;" vertex="1" parent="1">
          <mxGeometry x="390" y="620" width="140" height="70" as="geometry" />
        </mxCell>
        <mxCell id="9wxw3BKqKDEFKJXXTm7Z-10" value="Поиск по номеру" style="ellipse;whiteSpace=wrap;html=1;" vertex="1" parent="1">
          <mxGeometry x="790" y="660" width="140" height="70" as="geometry" />
        </mxCell>
        <mxCell id="9wxw3BKqKDEFKJXXTm7Z-11" value="Просмотр данных" style="ellipse;whiteSpace=wrap;html=1;" vertex="1" parent="1">
          <mxGeometry x="690" y="570" width="140" height="70" as="geometry" />
        </mxCell>
        <mxCell id="9wxw3BKqKDEFKJXXTm7Z-12" value="Сформировать отчёт" style="ellipse;whiteSpace=wrap;html=1;" vertex="1" parent="1">
          <mxGeometry x="500" y="540" width="140" height="70" as="geometry" />
        </mxCell>
        <mxCell id="9wxw3BKqKDEFKJXXTm7Z-16" style="edgeStyle=orthogonalEdgeStyle;rounded=0;orthogonalLoop=1;jettySize=auto;html=1;exitX=0.5;exitY=0.5;exitDx=0;exitDy=0;exitPerimeter=0;entryX=0.564;entryY=0.014;entryDx=0;entryDy=0;entryPerimeter=0;" edge="1" parent="1" source="9wxw3BKqKDEFKJXXTm7Z-5" target="9wxw3BKqKDEFKJXXTm7Z-10">
          <mxGeometry relative="1" as="geometry" />
        </mxCell>
        <mxCell id="9wxw3BKqKDEFKJXXTm7Z-18" style="edgeStyle=orthogonalEdgeStyle;rounded=0;orthogonalLoop=1;jettySize=auto;html=1;exitX=0.5;exitY=0.5;exitDx=0;exitDy=0;exitPerimeter=0;entryX=0.457;entryY=0.029;entryDx=0;entryDy=0;entryPerimeter=0;" edge="1" parent="1" source="9wxw3BKqKDEFKJXXTm7Z-4" target="9wxw3BKqKDEFKJXXTm7Z-6">
          <mxGeometry relative="1" as="geometry" />
        </mxCell>
      </root>
    </mxGraphModel>
  </diagram>
</mxfile>
